first trial																																					
nRows=17																																					
nColumns=38																																					
																																					
# SIMM Motion File Header:																																					
name Chen yuetian_10kg																																					
datacolumns 38																																					
datarows 17																																					
otherdata 1																																					
range 5.483 5.749																																					
endheader																																					
time	pelvis_tilt	pelvis_list	pelvis_rotation	pelvis_tx	pelvis_ty	pelvis_tz	hip_flexion_r	hip_adduction_r	hip_rotation_r	knee_angle_r	ankle_angle_r	subtalar_angle_r	mtp_angle_r	hip_flexion_l	hip_adduction_l	hip_rotation_l	knee_angle_l	ankle_angle_l	subtalar_angle_l	mtp_angle_l	lumbar_extension	lumbar_bending	lumbar_rotation	arm_flex_r	arm_add_r	arm_rot_r	elbow_flex_r	pro_sup_r	wrist_flex_r	wrist_dev_r	arm_flex_l	arm_add_l	arm_rot_l	elbow_flex_l	pro_sup_l	wrist_flex_l	wrist_dev_l
5.483	18.6119	-8.2681	-72.9842	0.1474	0.7033	-0.4263	42.0469	-7.697	-4.8862	66.8618	5.4174	0.8295	0	48.2363	-19.6493	28.8364	52.0039	-19.5312	6.153	0	-16.761	-4.0791	3.8824	-2.8991	-31.5014	-15.7405	73.1641	98.109	-30.9825	13.9096	27.2958	-18.2794	0.28	45.5056	16.2241	-22.7266	-40.4907
5.499	18.3742	-8.3717	-72.983	0.1474	0.7034	-0.4259	42.2357	-7.6478	-5.0762	66.8805	5.4929	0.8278	0	48.5575	-19.6965	28.9891	52.1082	-19.535	6.155	0	-16.7633	-4.1365	3.8411	-2.8687	-31.4962	-15.7269	73.2035	98.0726	-31.0369	13.7809	27.1988	-18.2638	0.356	43.0386	15.3994	-23.1292	-40.7293
5.516	18.1431	-8.4538	-72.9924	0.1475	0.7034	-0.4254	42.4255	-7.6028	-5.1346	66.9031	5.5604	0.8178	0	48.837	-19.7286	29.0681	52.2155	-19.4572	6.1563	0	-16.7772	-4.199	3.8065	-2.847	-31.4789	-15.7173	73.2799	98.0006	-31.0624	13.6629	27.1933	-18.2024	0.49	40.409	14.5098	-22.9718	-40.8305
5.533	17.9183	-8.522	-73.006	0.1478	0.7034	-0.425	42.6122	-7.5626	-5.1067	66.93	5.6263	0.7994	0	49.0909	-19.7487	29.1009	52.3282	-19.3379	6.1634	0	-16.7934	-4.2619	3.774	-2.8198	-31.4548	-15.6909	73.3718	97.9125	-31.066	13.5671	27.2348	-18.1068	0.647	37.7065	13.5735	-22.5455	-40.8511
5.549	17.7086	-8.581	-73.0153	0.148	0.7035	-0.4246	42.7886	-7.5269	-5.0485	66.9665	5.6922	0.7676	0	49.3391	-19.7617	29.1264	52.4457	-19.2658	6.2037	0	-16.7965	-4.3191	3.7319	-2.7375	-31.4153	-15.577	73.4361	97.8607	-31.0569	13.5463	27.2328	-18.0063	0.725	35.0639	12.7149	-22.318	-40.8797
5.566	17.519	-8.6247	-73.0183	0.1483	0.7035	-0.4241	42.9509	-7.5045	-4.9536	67.0151	5.7549	0.7076	0	49.5831	-19.7598	29.1529	52.5696	-19.2763	6.2979	0	-16.7704	-4.3613	3.6774	-2.5741	-31.3527	-15.3269	73.4444	97.8737	-31.0358	13.6377	27.1726	-17.8935	0.6841	32.4446	11.9914	-22.5116	-40.9508
5.583	17.3445	-8.6592	-73.0169	0.1486	0.7035	-0.4236	43.1027	-7.4864	-4.8282	67.0731	5.8176	0.6343	0	49.8212	-19.751	29.1719	52.6982	-19.3343	6.4255	0	-16.7312	-4.3978	3.6134	-2.356	-31.274	-14.9898	73.4252	97.9232	-31.0024	13.8033	27.07	-17.7741	0.5643	29.886	11.3649	-22.8983	-41.011
5.599	17.1803	-8.7065	-73.0091	0.1488	0.7035	-0.4231	43.2475	-7.4457	-4.7477	67.1382	5.8913	0.5866	0	50.0685	-19.7635	29.1978	52.826	-19.4224	6.5517	0	-16.7117	-4.4503	3.5368	-2.1114	-31.193	-14.6413	73.421	97.9757	-30.9641	13.9829	26.88	-17.6961	0.3833	27.6342	10.8322	-23.2736	-41.0303
5.616	17.031	-8.7722	-73.0047	0.1488	0.7034	-0.4226	43.3847	-7.3563	-4.7355	67.2142	5.9823	0.577	0	50.3314	-19.8208	29.2231	52.9586	-19.5585	6.6844	0	-16.7279	-4.5353	3.4357	-1.8069	-31.1213	-14.263	73.4473	98.0117	-30.9092	14.1858	26.5556	-17.7102	0.1258	25.8117	10.3857	-23.5864	-41.0278
5.633	16.892	-8.8509	-72.994	0.1487	0.7031	-0.4222	43.5149	-7.2443	-4.7681	67.2977	6.0846	0.5929	0	50.6038	-19.8992	29.2557	53.0903	-19.7244	6.8149	0	-16.7642	-4.636	3.3219	-1.4757	-31.0466	-13.8737	73.4886	98.0508	-30.8493	14.4026	26.1431	-17.7616	-0.1957	24.2955	10.0394	-23.8935	-41.0026
5.649	16.7431	-8.9474	-72.9461	0.1486	0.7029	-0.4218	43.6441	-7.1616	-4.8501	67.3756	6.1912	0.6359	0	50.8818	-19.9561	29.3323	53.1986	-19.8477	6.8842	0	-16.8064	-4.7251	3.2275	-1.2461	-30.9491	-13.6031	73.5407	98.1194	-30.8268	14.5466	25.7382	-17.7421	-0.5189	22.963	9.8168	-24.1577	-40.9078
5.666	16.5723	-9.0719	-72.8389	0.1484	0.7028	-0.4216	43.7792	-7.1276	-4.9937	67.4495	6.307	0.7234	0	51.1761	-19.9733	29.4847	53.2699	-19.9136	6.8672	0	-16.8553	-4.7922	3.1674	-1.1927	-30.8005	-13.5302	73.6214	98.245	-30.8662	14.5717	25.3748	-17.5943	-0.8518	21.7977	9.7754	-24.339	-40.6923
5.683	16.3915	-9.2136	-72.6951	0.1481	0.7026	-0.4216	43.9133	-7.1231	-5.1865	67.5175	6.4265	0.8379	0	51.4758	-19.9683	29.6805	53.3176	-19.9361	6.7892	0	-16.9101	-4.8476	3.1269	-1.2404	-30.6301	-13.5735	73.7132	98.3993	-30.9437	14.524	25.0211	-17.3775	-1.1824	20.8148	9.8532	-24.4802	-40.4089
5.699	16.2157	-9.3476	-72.5492	0.1478	0.7025	-0.4215	44.0309	-7.1415	-5.3958	67.5606	6.5282	0.9291	0	51.7447	-19.9527	29.86	53.3592	-19.8856	6.6677	0	-16.9539	-4.8945	3.0931	-1.2927	-30.5069	-13.6233	73.7585	98.5258	-31.0285	14.4553	24.6732	-17.1636	-1.4169	19.9391	9.896	-24.6663	-40.1624
5.716	16.0457	-9.4709	-72.4071	0.1476	0.7025	-0.4215	44.1244	-7.1844	-5.637	67.563	6.6012	0.9698	0	51.9723	-19.9342	30.0281	53.3975	-19.731	6.5166	0	-16.976	-4.9334	3.0629	-1.3204	-30.4615	-13.6475	73.7192	98.6097	-31.1193	14.3768	24.3103	-16.9831	-1.489	19.1865	9.8403	-24.9765	-40.0094
5.733	15.8809	-9.5863	-72.2629	0.1474	0.7026	-0.4215	44.2011	-7.2498	-5.8948	67.5402	6.6568	0.9875	0	52.169	-19.9058	30.1798	53.4291	-19.5035	6.3237	0	-16.987	-4.9639	3.0394	-1.3534	-30.4634	-13.6793	73.6334	98.666	-31.2172	14.2773	23.9506	-16.8099	-1.4657	18.5413	9.7549	-25.3303	-39.8946
5.749	15.7343	-9.6778	-72.1349	0.1473	0.7026	-0.4216	44.2688	-7.3252	-6.0905	67.519	6.7071	1.0136	0	52.3297	-19.8574	30.2414	53.4623	-19.2669	6.0661	0	-17.003	-4.9882	3.0191	-1.3855	-30.4907	-13.7086	73.5577	98.6831	-31.2943	14.1758	23.6484	-16.6288	-1.4543	17.8811	9.6849	-25.5716	-39.7523
